<?xml version="1.0" standalone="no"?>
<!DOCTYPE svg PUBLIC "-//W3C//DTD SVG 20010904//EN"
 "http://www.w3.org/TR/2001/REC-SVG-20010904/DTD/svg10.dtd">
<svg version="1.0" xmlns="http://www.w3.org/2000/svg"
 width="331.000000pt" height="331.000000pt" viewBox="0 0 331.000000 331.000000"
 preserveAspectRatio="xMidYMid meet">

<g transform="translate(0.000000,331.000000) scale(0.100000,-0.100000)"
fill="#000000" stroke="none">
<path d="M2112 2410 c-12 -5 -25 -16 -28 -25 -4 -8 -17 -15 -30 -15 -24 0 -64
-31 -64 -50 0 -5 9 -33 20 -62 23 -60 23 -60 -31 -348 -16 -85 -32 -174 -35
-196 -3 -23 -9 -46 -13 -51 -7 -12 -328 -143 -349 -143 -21 0 -11 573 12 675
21 96 20 112 -10 140 -29 27 -91 34 -111 14 -8 -8 -13 -8 -17 0 -10 16 -62 13
-96 -4 -38 -19 -44 -48 -30 -121 7 -33 16 -162 20 -289 8 -226 8 -232 -17
-345 -15 -63 -28 -117 -29 -119 -5 -5 -295 109 -330 130 -17 10 -45 19 -62 19
-18 0 -49 7 -69 15 -184 71 -516 107 -652 70 -104 -27 -171 -112 -179 -227
-10 -140 86 -245 279 -303 101 -30 400 -30 507 1 19 5 22 3 22 -19 0 -51 48
-161 82 -189 46 -38 125 -55 180 -39 47 14 123 85 152 142 29 57 86 193 86
206 0 17 22 63 30 63 4 0 9 -69 12 -152 5 -182 16 -215 92 -266 40 -27 58 -32
105 -32 48 0 64 5 108 35 52 35 97 85 149 163 32 50 22 50 170 -1 138 -49 259
-70 366 -65 74 4 92 8 126 32 85 59 103 176 47 301 -39 87 -145 381 -145 404
0 11 9 23 22 27 12 3 55 22 96 41 41 20 107 45 147 58 l72 22 17 -71 c10 -39
24 -154 32 -256 21 -286 29 -320 91 -398 47 -58 85 -76 158 -75 80 1 127 23
194 91 72 73 91 125 91 248 0 79 -4 97 -27 145 -16 30 -32 54 -38 54 -6 0 -12
-59 -15 -147 -5 -136 -7 -148 -28 -171 -35 -37 -80 -54 -97 -36 -34 35 -56
175 -75 468 -11 184 -25 223 -99 270 -42 27 -57 31 -117 31 -92 0 -149 -25
-423 -182 -18 -10 -36 -17 -39 -14 -15 16 -53 229 -61 344 -10 147 -19 169
-74 196 -39 18 -61 19 -95 6z m27 -543 c12 -49 21 -93 21 -98 0 -12 -148 -84
-156 -76 -3 3 3 54 14 114 11 59 23 126 27 148 4 22 11 63 17 90 l11 50 23
-70 c12 -38 32 -110 43 -158z m64 -269 c9 -40 26 -118 38 -173 12 -55 28 -125
35 -155 9 -36 10 -58 4 -64 -27 -27 -356 13 -375 45 -3 5 3 39 14 76 11 38 28
106 37 153 9 47 20 92 24 100 8 15 164 88 190 89 12 1 21 -19 33 -71z m-1458
-40 c58 -13 60 -14 57 -43 -2 -16 -8 -45 -13 -62 -8 -25 -7 -46 6 -89 20 -70
16 -74 -80 -74 -143 0 -269 31 -352 87 -42 28 -55 44 -63 74 -27 98 41 132
250 125 74 -3 162 -11 195 -18z m1154 -35 c-4 -21 -23 -83 -41 -138 l-34 -100
-34 2 c-19 1 -73 17 -120 35 -83 33 -85 35 -88 69 -3 33 0 36 45 57 55 25 265
110 274 111 4 1 3 -16 -2 -36z m-748 -93 c41 -16 76 -30 79 -31 8 -1 -133 -49
-145 -49 -7 0 -11 21 -11 55 1 30 2 55 2 55 1 0 35 -13 75 -30z m78 -157 c-18
-48 -71 -141 -89 -158 -16 -15 -18 -14 -24 22 -4 21 -12 53 -19 70 -6 18 -8
35 -5 39 7 6 127 53 140 53 4 1 3 -11 -3 -26z m447 -64 c38 -17 71 -33 72 -34
15 -14 -83 -113 -104 -106 -19 7 -58 171 -40 171 2 0 34 -14 72 -31z"/>
<path d="M899 1991 c-74 -41 -91 -141 -33 -202 56 -59 138 -56 193 7 92 105
-36 262 -160 195z"/>
</g>
</svg>
