<svg width="28" height="29" viewBox="0 0 28 29" fill="none" xmlns="http://www.w3.org/2000/svg">
<path d="M11.4699 0.884996C7.1649 1.62 3.0699 4.77 1.1099 8.9C0.129902 10.965 0.0249023 11.49 0.0249023 14.675C0.0249023 17.93 0.0949024 18.35 1.1799 20.52C5.6949 29.69 17.2099 31.405 24.1049 23.95C26.7649 21.115 27.6399 18.805 27.6399 14.675C27.6399 10.58 26.7649 8.235 24.1749 5.435C21.8649 2.985 18.9599 1.375 15.9499 0.884996C14.6899 0.674997 13.6049 0.534996 13.4999 0.534996C13.3949 0.569996 12.4849 0.709997 11.4699 0.884996ZM18.5049 10.335C18.6449 11.35 18.8199 12.225 18.9249 12.33C19.0299 12.435 19.8349 12.19 20.7099 11.77C23.2649 10.51 24.3499 11.35 24.3499 14.605C24.3499 15.41 24.4899 16.285 24.6649 16.565C25.1199 17.3 25.7499 16.705 25.7499 15.515C25.7499 14.885 25.8899 14.535 26.0999 14.675C26.6949 15.06 26.4849 16.915 25.7149 17.685C24.7699 18.63 23.2649 18.455 22.7049 17.3C22.4599 16.81 22.2499 15.725 22.2499 14.85C22.2499 12.645 21.9349 12.295 20.5349 12.785C19.2749 13.24 19.2749 13.17 20.1499 16.285C20.7799 18.455 20.4999 19.05 18.8199 19.05C18.0499 19.05 16.9649 18.875 16.3349 18.665C15.3199 18.315 15.1799 18.35 14.5149 19.19C13.7449 20.17 12.5199 20.38 11.8199 19.68C11.5749 19.435 11.3999 18.7 11.3999 18V16.775L10.5949 18.175C9.9649 19.33 9.6149 19.575 8.7749 19.575C8.0049 19.575 7.6199 19.365 7.3749 18.77C7.0599 18.105 6.7799 18 4.8899 18C1.5999 18 -0.115098 16.215 1.4949 14.43C2.2999 13.52 4.9599 13.625 8.1449 14.675C9.6149 15.165 10.8749 15.48 11.0149 15.34C11.1199 15.235 11.2249 13.73 11.1899 12.015L11.1549 8.9H12.1699H13.1499V12.05C13.1499 13.765 13.2199 15.2 13.2899 15.2C13.3599 15.2 13.9549 14.99 14.6199 14.71C15.7049 14.22 15.8449 14.01 16.2299 12.015C16.4399 10.825 16.5449 9.705 16.4049 9.495C16.1599 9.11 16.9299 8.55 17.7349 8.55C18.1549 8.55 18.3649 9.005 18.5049 10.335ZM9.1249 12.575C9.1249 13.345 8.0399 13.73 7.4799 13.17C6.8849 12.575 7.4449 11.63 8.3199 11.77C8.8449 11.84 9.1249 12.12 9.1249 12.575Z" fill="#5464BF"/>
<path d="M16.545 12.505C16.37 13.835 16.37 13.87 17.07 13.625C17.42 13.485 17.525 13.1 17.42 12.54C17.175 11.245 16.755 11.21 16.545 12.505Z" fill="#5464BF"/>
<path d="M16.7899 14.5C16.2999 14.71 15.9849 15.2 15.8449 15.97C15.6349 17.475 15.7749 17.65 17.2099 17.65H18.4699L18.2249 16.145C17.9099 14.36 17.7349 14.15 16.7899 14.5Z" fill="#5464BF"/>
<path d="M3.14011 15.235C2.72011 15.9 4.33011 16.95 5.76511 16.95C6.95511 16.95 7.06011 16.88 6.99011 15.97C6.95511 15.095 6.85011 15.025 5.20511 14.92C4.08511 14.85 3.31511 14.99 3.14011 15.235Z" fill="#5464BF"/>
<path d="M13.9201 15.62C13.0101 16.075 13.0451 16.6 14.0951 16.985C14.7251 17.195 14.9001 17.09 15.2151 16.215C15.6001 15.095 15.3201 14.955 13.9201 15.62Z" fill="#5464BF"/>
<path d="M9.2998 16.25C9.2998 16.425 9.4748 16.6 9.6498 16.6C9.8598 16.6 9.9998 16.425 9.9998 16.25C9.9998 16.04 9.8598 15.9 9.6498 15.9C9.4748 15.9 9.2998 16.04 9.2998 16.25Z" fill="#5464BF"/>
<path d="M9.75496 17.195C9.22996 17.37 9.12496 18.35 9.61496 18.35C9.89496 18.35 10.49 17.3 10.28 17.125C10.21 17.09 9.96496 17.125 9.75496 17.195Z" fill="#5464BF"/>
<path d="M13.3597 18.175C13.4997 18.455 13.7097 18.595 13.8847 18.49C14.3747 18.21 14.2347 17.65 13.6747 17.65C13.3597 17.65 13.2547 17.86 13.3597 18.175Z" fill="#5464BF"/>
</svg>
